<?xml version="1.0" standalone="no"?>
<svg xmlns="http://www.w3.org/2000/svg" width="320" height="320"><defs><clipPath id="clip-path-dot-color"><rect x="28" y="92" width="8" height="8" transform="rotate(0,32,96)"/><rect x="28" y="100" width="8" height="8" transform="rotate(0,32,104)"/><rect x="28" y="124" width="8" height="8" transform="rotate(0,32,128)"/><rect x="28" y="132" width="8" height="8" transform="rotate(0,32,136)"/><rect x="28" y="148" width="8" height="8" transform="rotate(0,32,152)"/><rect x="28" y="172" width="8" height="8" transform="rotate(0,32,176)"/><rect x="28" y="180" width="8" height="8" transform="rotate(0,32,184)"/><rect x="28" y="188" width="8" height="8" transform="rotate(0,32,192)"/><rect x="28" y="212" width="8" height="8" transform="rotate(0,32,216)"/><rect x="36" y="100" width="8" height="8" transform="rotate(0,40,104)"/><rect x="36" y="108" width="8" height="8" transform="rotate(0,40,112)"/><rect x="36" y="140" width="8" height="8" transform="rotate(0,40,144)"/><rect x="36" y="172" width="8" height="8" transform="rotate(0,40,176)"/><rect x="36" y="188" width="8" height="8" transform="rotate(0,40,192)"/><rect x="36" y="196" width="8" height="8" transform="rotate(0,40,200)"/><rect x="36" y="220" width="8" height="8" transform="rotate(0,40,224)"/><rect x="44" y="116" width="8" height="8" transform="rotate(0,48,120)"/><rect x="44" y="140" width="8" height="8" transform="rotate(0,48,144)"/><rect x="44" y="156" width="8" height="8" transform="rotate(0,48,160)"/><rect x="44" y="188" width="8" height="8" transform="rotate(0,48,192)"/><rect x="44" y="196" width="8" height="8" transform="rotate(0,48,200)"/><rect x="52" y="108" width="8" height="8" transform="rotate(0,56,112)"/><rect x="52" y="132" width="8" height="8" transform="rotate(0,56,136)"/><rect x="52" y="172" width="8" height="8" transform="rotate(0,56,176)"/><rect x="52" y="196" width="8" height="8" transform="rotate(0,56,200)"/><rect x="60" y="92" width="8" height="8" transform="rotate(0,64,96)"/><rect x="60" y="100" width="8" height="8" transform="rotate(0,64,104)"/><rect x="60" y="116" width="8" height="8" transform="rotate(0,64,120)"/><rect x="60" y="124" width="8" height="8" transform="rotate(0,64,128)"/><rect x="60" y="140" width="8" height="8" transform="rotate(0,64,144)"/><rect x="60" y="148" width="8" height="8" transform="rotate(0,64,152)"/><rect x="60" y="156" width="8" height="8" transform="rotate(0,64,160)"/><rect x="60" y="188" width="8" height="8" transform="rotate(0,64,192)"/><rect x="68" y="92" width="8" height="8" transform="rotate(0,72,96)"/><rect x="68" y="100" width="8" height="8" transform="rotate(0,72,104)"/><rect x="68" y="124" width="8" height="8" transform="rotate(0,72,128)"/><rect x="68" y="132" width="8" height="8" transform="rotate(0,72,136)"/><rect x="68" y="140" width="8" height="8" transform="rotate(0,72,144)"/><rect x="68" y="148" width="8" height="8" transform="rotate(0,72,152)"/><rect x="68" y="156" width="8" height="8" transform="rotate(0,72,160)"/><rect x="68" y="172" width="8" height="8" transform="rotate(0,72,176)"/><rect x="68" y="180" width="8" height="8" transform="rotate(0,72,184)"/><rect x="68" y="196" width="8" height="8" transform="rotate(0,72,200)"/><rect x="76" y="92" width="8" height="8" transform="rotate(0,80,96)"/><rect x="76" y="108" width="8" height="8" transform="rotate(0,80,112)"/><rect x="76" y="124" width="8" height="8" transform="rotate(0,80,128)"/><rect x="76" y="140" width="8" height="8" transform="rotate(0,80,144)"/><rect x="76" y="156" width="8" height="8" transform="rotate(0,80,160)"/><rect x="76" y="172" width="8" height="8" transform="rotate(0,80,176)"/><rect x="76" y="188" width="8" height="8" transform="rotate(0,80,192)"/><rect x="76" y="204" width="8" height="8" transform="rotate(0,80,208)"/><rect x="76" y="220" width="8" height="8" transform="rotate(0,80,224)"/><rect x="84" y="100" width="8" height="8" transform="rotate(0,88,104)"/><rect x="84" y="108" width="8" height="8" transform="rotate(0,88,112)"/><rect x="84" y="148" width="8" height="8" transform="rotate(0,88,152)"/><rect x="84" y="156" width="8" height="8" transform="rotate(0,88,160)"/><rect x="84" y="180" width="8" height="8" transform="rotate(0,88,184)"/><rect x="84" y="188" width="8" height="8" transform="rotate(0,88,192)"/><rect x="84" y="196" width="8" height="8" transform="rotate(0,88,200)"/><rect x="84" y="204" width="8" height="8" transform="rotate(0,88,208)"/><rect x="84" y="212" width="8" height="8" transform="rotate(0,88,216)"/><rect x="84" y="220" width="8" height="8" transform="rotate(0,88,224)"/><rect x="92" y="36" width="8" height="8" transform="rotate(0,96,40)"/><rect x="92" y="44" width="8" height="8" transform="rotate(0,96,48)"/><rect x="92" y="52" width="8" height="8" transform="rotate(0,96,56)"/><rect x="92" y="60" width="8" height="8" transform="rotate(0,96,64)"/><rect x="92" y="68" width="8" height="8" transform="rotate(0,96,72)"/><rect x="92" y="76" width="8" height="8" transform="rotate(0,96,80)"/><rect x="92" y="84" width="8" height="8" transform="rotate(0,96,88)"/><rect x="92" y="108" width="8" height="8" transform="rotate(0,96,112)"/><rect x="92" y="116" width="8" height="8" transform="rotate(0,96,120)"/><rect x="92" y="132" width="8" height="8" transform="rotate(0,96,136)"/><rect x="92" y="164" width="8" height="8" transform="rotate(0,96,168)"/><rect x="92" y="180" width="8" height="8" transform="rotate(0,96,184)"/><rect x="92" y="204" width="8" height="8" transform="rotate(0,96,208)"/><rect x="92" y="220" width="8" height="8" transform="rotate(0,96,224)"/><rect x="92" y="244" width="8" height="8" transform="rotate(0,96,248)"/><rect x="92" y="252" width="8" height="8" transform="rotate(0,96,256)"/><rect x="92" y="284" width="8" height="8" transform="rotate(0,96,288)"/><rect x="100" y="60" width="8" height="8" transform="rotate(0,104,64)"/><rect x="100" y="68" width="8" height="8" transform="rotate(0,104,72)"/><rect x="100" y="84" width="8" height="8" transform="rotate(0,104,88)"/><rect x="100" y="108" width="8" height="8" transform="rotate(0,104,112)"/><rect x="100" y="116" width="8" height="8" transform="rotate(0,104,120)"/><rect x="100" y="124" width="8" height="8" transform="rotate(0,104,128)"/><rect x="100" y="132" width="8" height="8" transform="rotate(0,104,136)"/><rect x="100" y="164" width="8" height="8" transform="rotate(0,104,168)"/><rect x="100" y="180" width="8" height="8" transform="rotate(0,104,184)"/><rect x="100" y="188" width="8" height="8" transform="rotate(0,104,192)"/><rect x="100" y="212" width="8" height="8" transform="rotate(0,104,216)"/><rect x="100" y="236" width="8" height="8" transform="rotate(0,104,240)"/><rect x="100" y="244" width="8" height="8" transform="rotate(0,104,248)"/><rect x="100" y="260" width="8" height="8" transform="rotate(0,104,264)"/><rect x="100" y="268" width="8" height="8" transform="rotate(0,104,272)"/><rect x="100" y="284" width="8" height="8" transform="rotate(0,104,288)"/><rect x="108" y="28" width="8" height="8" transform="rotate(0,112,32)"/><rect x="108" y="36" width="8" height="8" transform="rotate(0,112,40)"/><rect x="108" y="44" width="8" height="8" transform="rotate(0,112,48)"/><rect x="108" y="60" width="8" height="8" transform="rotate(0,112,64)"/><rect x="108" y="76" width="8" height="8" transform="rotate(0,112,80)"/><rect x="108" y="84" width="8" height="8" transform="rotate(0,112,88)"/><rect x="108" y="100" width="8" height="8" transform="rotate(0,112,104)"/><rect x="108" y="132" width="8" height="8" transform="rotate(0,112,136)"/><rect x="108" y="140" width="8" height="8" transform="rotate(0,112,144)"/><rect x="108" y="148" width="8" height="8" transform="rotate(0,112,152)"/><rect x="108" y="164" width="8" height="8" transform="rotate(0,112,168)"/><rect x="108" y="188" width="8" height="8" transform="rotate(0,112,192)"/><rect x="108" y="204" width="8" height="8" transform="rotate(0,112,208)"/><rect x="108" y="220" width="8" height="8" transform="rotate(0,112,224)"/><rect x="108" y="236" width="8" height="8" transform="rotate(0,112,240)"/><rect x="108" y="252" width="8" height="8" transform="rotate(0,112,256)"/><rect x="108" y="268" width="8" height="8" transform="rotate(0,112,272)"/><rect x="108" y="276" width="8" height="8" transform="rotate(0,112,280)"/><rect x="116" y="28" width="8" height="8" transform="rotate(0,120,32)"/><rect x="116" y="36" width="8" height="8" transform="rotate(0,120,40)"/><rect x="116" y="44" width="8" height="8" transform="rotate(0,120,48)"/><rect x="116" y="68" width="8" height="8" transform="rotate(0,120,72)"/><rect x="116" y="84" width="8" height="8" transform="rotate(0,120,88)"/><rect x="116" y="92" width="8" height="8" transform="rotate(0,120,96)"/><rect x="116" y="116" width="8" height="8" transform="rotate(0,120,120)"/><rect x="116" y="140" width="8" height="8" transform="rotate(0,120,144)"/><rect x="116" y="148" width="8" height="8" transform="rotate(0,120,152)"/><rect x="116" y="164" width="8" height="8" transform="rotate(0,120,168)"/><rect x="116" y="172" width="8" height="8" transform="rotate(0,120,176)"/><rect x="116" y="180" width="8" height="8" transform="rotate(0,120,184)"/><rect x="116" y="212" width="8" height="8" transform="rotate(0,120,216)"/><rect x="116" y="228" width="8" height="8" transform="rotate(0,120,232)"/><rect x="116" y="252" width="8" height="8" transform="rotate(0,120,256)"/><rect x="116" y="260" width="8" height="8" transform="rotate(0,120,264)"/><rect x="116" y="268" width="8" height="8" transform="rotate(0,120,272)"/><rect x="116" y="276" width="8" height="8" transform="rotate(0,120,280)"/><rect x="124" y="52" width="8" height="8" transform="rotate(0,128,56)"/><rect x="124" y="60" width="8" height="8" transform="rotate(0,128,64)"/><rect x="124" y="76" width="8" height="8" transform="rotate(0,128,80)"/><rect x="124" y="124" width="8" height="8" transform="rotate(0,128,128)"/><rect x="124" y="188" width="8" height="8" transform="rotate(0,128,192)"/><rect x="124" y="196" width="8" height="8" transform="rotate(0,128,200)"/><rect x="124" y="204" width="8" height="8" transform="rotate(0,128,208)"/><rect x="124" y="212" width="8" height="8" transform="rotate(0,128,216)"/><rect x="124" y="228" width="8" height="8" transform="rotate(0,128,232)"/><rect x="124" y="260" width="8" height="8" transform="rotate(0,128,264)"/><rect x="124" y="284" width="8" height="8" transform="rotate(0,128,288)"/><rect x="132" y="36" width="8" height="8" transform="rotate(0,136,40)"/><rect x="132" y="52" width="8" height="8" transform="rotate(0,136,56)"/><rect x="132" y="60" width="8" height="8" transform="rotate(0,136,64)"/><rect x="132" y="92" width="8" height="8" transform="rotate(0,136,96)"/><rect x="132" y="100" width="8" height="8" transform="rotate(0,136,104)"/><rect x="132" y="108" width="8" height="8" transform="rotate(0,136,112)"/><rect x="132" y="124" width="8" height="8" transform="rotate(0,136,128)"/><rect x="132" y="132" width="8" height="8" transform="rotate(0,136,136)"/><rect x="132" y="148" width="8" height="8" transform="rotate(0,136,152)"/><rect x="132" y="172" width="8" height="8" transform="rotate(0,136,176)"/><rect x="132" y="196" width="8" height="8" transform="rotate(0,136,200)"/><rect x="132" y="236" width="8" height="8" transform="rotate(0,136,240)"/><rect x="132" y="260" width="8" height="8" transform="rotate(0,136,264)"/><rect x="132" y="276" width="8" height="8" transform="rotate(0,136,280)"/><rect x="132" y="284" width="8" height="8" transform="rotate(0,136,288)"/><rect x="140" y="52" width="8" height="8" transform="rotate(0,144,56)"/><rect x="140" y="60" width="8" height="8" transform="rotate(0,144,64)"/><rect x="140" y="76" width="8" height="8" transform="rotate(0,144,80)"/><rect x="140" y="84" width="8" height="8" transform="rotate(0,144,88)"/><rect x="140" y="108" width="8" height="8" transform="rotate(0,144,112)"/><rect x="140" y="124" width="8" height="8" transform="rotate(0,144,128)"/><rect x="140" y="132" width="8" height="8" transform="rotate(0,144,136)"/><rect x="140" y="156" width="8" height="8" transform="rotate(0,144,160)"/><rect x="140" y="164" width="8" height="8" transform="rotate(0,144,168)"/><rect x="140" y="188" width="8" height="8" transform="rotate(0,144,192)"/><rect x="140" y="204" width="8" height="8" transform="rotate(0,144,208)"/><rect x="140" y="228" width="8" height="8" transform="rotate(0,144,232)"/><rect x="140" y="236" width="8" height="8" transform="rotate(0,144,240)"/><rect x="140" y="260" width="8" height="8" transform="rotate(0,144,264)"/><rect x="140" y="276" width="8" height="8" transform="rotate(0,144,280)"/><rect x="148" y="44" width="8" height="8" transform="rotate(0,152,48)"/><rect x="148" y="60" width="8" height="8" transform="rotate(0,152,64)"/><rect x="148" y="84" width="8" height="8" transform="rotate(0,152,88)"/><rect x="148" y="92" width="8" height="8" transform="rotate(0,152,96)"/><rect x="148" y="124" width="8" height="8" transform="rotate(0,152,128)"/><rect x="148" y="132" width="8" height="8" transform="rotate(0,152,136)"/><rect x="148" y="156" width="8" height="8" transform="rotate(0,152,160)"/><rect x="148" y="164" width="8" height="8" transform="rotate(0,152,168)"/><rect x="148" y="172" width="8" height="8" transform="rotate(0,152,176)"/><rect x="148" y="196" width="8" height="8" transform="rotate(0,152,200)"/><rect x="148" y="204" width="8" height="8" transform="rotate(0,152,208)"/><rect x="148" y="228" width="8" height="8" transform="rotate(0,152,232)"/><rect x="148" y="236" width="8" height="8" transform="rotate(0,152,240)"/><rect x="148" y="268" width="8" height="8" transform="rotate(0,152,272)"/><rect x="156" y="44" width="8" height="8" transform="rotate(0,160,48)"/><rect x="156" y="60" width="8" height="8" transform="rotate(0,160,64)"/><rect x="156" y="68" width="8" height="8" transform="rotate(0,160,72)"/><rect x="156" y="76" width="8" height="8" transform="rotate(0,160,80)"/><rect x="156" y="100" width="8" height="8" transform="rotate(0,160,104)"/><rect x="156" y="116" width="8" height="8" transform="rotate(0,160,120)"/><rect x="156" y="124" width="8" height="8" transform="rotate(0,160,128)"/><rect x="156" y="140" width="8" height="8" transform="rotate(0,160,144)"/><rect x="156" y="172" width="8" height="8" transform="rotate(0,160,176)"/><rect x="156" y="188" width="8" height="8" transform="rotate(0,160,192)"/><rect x="156" y="204" width="8" height="8" transform="rotate(0,160,208)"/><rect x="156" y="220" width="8" height="8" transform="rotate(0,160,224)"/><rect x="156" y="228" width="8" height="8" transform="rotate(0,160,232)"/><rect x="156" y="244" width="8" height="8" transform="rotate(0,160,248)"/><rect x="156" y="252" width="8" height="8" transform="rotate(0,160,256)"/><rect x="156" y="284" width="8" height="8" transform="rotate(0,160,288)"/><rect x="164" y="28" width="8" height="8" transform="rotate(0,168,32)"/><rect x="164" y="36" width="8" height="8" transform="rotate(0,168,40)"/><rect x="164" y="44" width="8" height="8" transform="rotate(0,168,48)"/><rect x="164" y="60" width="8" height="8" transform="rotate(0,168,64)"/><rect x="164" y="92" width="8" height="8" transform="rotate(0,168,96)"/><rect x="164" y="116" width="8" height="8" transform="rotate(0,168,120)"/><rect x="164" y="124" width="8" height="8" transform="rotate(0,168,128)"/><rect x="164" y="180" width="8" height="8" transform="rotate(0,168,184)"/><rect x="164" y="188" width="8" height="8" transform="rotate(0,168,192)"/><rect x="164" y="196" width="8" height="8" transform="rotate(0,168,200)"/><rect x="164" y="212" width="8" height="8" transform="rotate(0,168,216)"/><rect x="164" y="220" width="8" height="8" transform="rotate(0,168,224)"/><rect x="164" y="228" width="8" height="8" transform="rotate(0,168,232)"/><rect x="164" y="236" width="8" height="8" transform="rotate(0,168,240)"/><rect x="164" y="244" width="8" height="8" transform="rotate(0,168,248)"/><rect x="164" y="260" width="8" height="8" transform="rotate(0,168,264)"/><rect x="164" y="268" width="8" height="8" transform="rotate(0,168,272)"/><rect x="164" y="284" width="8" height="8" transform="rotate(0,168,288)"/><rect x="172" y="36" width="8" height="8" transform="rotate(0,176,40)"/><rect x="172" y="68" width="8" height="8" transform="rotate(0,176,72)"/><rect x="172" y="76" width="8" height="8" transform="rotate(0,176,80)"/><rect x="172" y="108" width="8" height="8" transform="rotate(0,176,112)"/><rect x="172" y="116" width="8" height="8" transform="rotate(0,176,120)"/><rect x="172" y="140" width="8" height="8" transform="rotate(0,176,144)"/><rect x="172" y="196" width="8" height="8" transform="rotate(0,176,200)"/><rect x="172" y="228" width="8" height="8" transform="rotate(0,176,232)"/><rect x="172" y="244" width="8" height="8" transform="rotate(0,176,248)"/><rect x="172" y="252" width="8" height="8" transform="rotate(0,176,256)"/><rect x="172" y="268" width="8" height="8" transform="rotate(0,176,272)"/><rect x="172" y="276" width="8" height="8" transform="rotate(0,176,280)"/><rect x="180" y="44" width="8" height="8" transform="rotate(0,184,48)"/><rect x="180" y="52" width="8" height="8" transform="rotate(0,184,56)"/><rect x="180" y="84" width="8" height="8" transform="rotate(0,184,88)"/><rect x="180" y="92" width="8" height="8" transform="rotate(0,184,96)"/><rect x="180" y="132" width="8" height="8" transform="rotate(0,184,136)"/><rect x="180" y="172" width="8" height="8" transform="rotate(0,184,176)"/><rect x="180" y="188" width="8" height="8" transform="rotate(0,184,192)"/><rect x="180" y="196" width="8" height="8" transform="rotate(0,184,200)"/><rect x="180" y="204" width="8" height="8" transform="rotate(0,184,208)"/><rect x="180" y="212" width="8" height="8" transform="rotate(0,184,216)"/><rect x="180" y="228" width="8" height="8" transform="rotate(0,184,232)"/><rect x="180" y="244" width="8" height="8" transform="rotate(0,184,248)"/><rect x="180" y="252" width="8" height="8" transform="rotate(0,184,256)"/><rect x="180" y="260" width="8" height="8" transform="rotate(0,184,264)"/><rect x="180" y="268" width="8" height="8" transform="rotate(0,184,272)"/><rect x="180" y="284" width="8" height="8" transform="rotate(0,184,288)"/><rect x="188" y="36" width="8" height="8" transform="rotate(0,192,40)"/><rect x="188" y="52" width="8" height="8" transform="rotate(0,192,56)"/><rect x="188" y="76" width="8" height="8" transform="rotate(0,192,80)"/><rect x="188" y="84" width="8" height="8" transform="rotate(0,192,88)"/><rect x="188" y="92" width="8" height="8" transform="rotate(0,192,96)"/><rect x="188" y="108" width="8" height="8" transform="rotate(0,192,112)"/><rect x="188" y="124" width="8" height="8" transform="rotate(0,192,128)"/><rect x="188" y="140" width="8" height="8" transform="rotate(0,192,144)"/><rect x="188" y="180" width="8" height="8" transform="rotate(0,192,184)"/><rect x="188" y="196" width="8" height="8" transform="rotate(0,192,200)"/><rect x="188" y="228" width="8" height="8" transform="rotate(0,192,232)"/><rect x="188" y="260" width="8" height="8" transform="rotate(0,192,264)"/><rect x="188" y="276" width="8" height="8" transform="rotate(0,192,280)"/><rect x="188" y="284" width="8" height="8" transform="rotate(0,192,288)"/><rect x="196" y="28" width="8" height="8" transform="rotate(0,200,32)"/><rect x="196" y="44" width="8" height="8" transform="rotate(0,200,48)"/><rect x="196" y="52" width="8" height="8" transform="rotate(0,200,56)"/><rect x="196" y="60" width="8" height="8" transform="rotate(0,200,64)"/><rect x="196" y="68" width="8" height="8" transform="rotate(0,200,72)"/><rect x="196" y="100" width="8" height="8" transform="rotate(0,200,104)"/><rect x="196" y="108" width="8" height="8" transform="rotate(0,200,112)"/><rect x="196" y="116" width="8" height="8" transform="rotate(0,200,120)"/><rect x="196" y="124" width="8" height="8" transform="rotate(0,200,128)"/><rect x="196" y="132" width="8" height="8" transform="rotate(0,200,136)"/><rect x="196" y="140" width="8" height="8" transform="rotate(0,200,144)"/><rect x="196" y="148" width="8" height="8" transform="rotate(0,200,152)"/><rect x="196" y="156" width="8" height="8" transform="rotate(0,200,160)"/><rect x="196" y="172" width="8" height="8" transform="rotate(0,200,176)"/><rect x="196" y="188" width="8" height="8" transform="rotate(0,200,192)"/><rect x="196" y="204" width="8" height="8" transform="rotate(0,200,208)"/><rect x="196" y="260" width="8" height="8" transform="rotate(0,200,264)"/><rect x="196" y="284" width="8" height="8" transform="rotate(0,200,288)"/><rect x="204" y="28" width="8" height="8" transform="rotate(0,208,32)"/><rect x="204" y="76" width="8" height="8" transform="rotate(0,208,80)"/><rect x="204" y="84" width="8" height="8" transform="rotate(0,208,88)"/><rect x="204" y="92" width="8" height="8" transform="rotate(0,208,96)"/><rect x="204" y="100" width="8" height="8" transform="rotate(0,208,104)"/><rect x="204" y="116" width="8" height="8" transform="rotate(0,208,120)"/><rect x="204" y="124" width="8" height="8" transform="rotate(0,208,128)"/><rect x="204" y="156" width="8" height="8" transform="rotate(0,208,160)"/><rect x="204" y="180" width="8" height="8" transform="rotate(0,208,184)"/><rect x="204" y="196" width="8" height="8" transform="rotate(0,208,200)"/><rect x="204" y="228" width="8" height="8" transform="rotate(0,208,232)"/><rect x="204" y="244" width="8" height="8" transform="rotate(0,208,248)"/><rect x="204" y="260" width="8" height="8" transform="rotate(0,208,264)"/><rect x="204" y="276" width="8" height="8" transform="rotate(0,208,280)"/><rect x="212" y="28" width="8" height="8" transform="rotate(0,216,32)"/><rect x="212" y="44" width="8" height="8" transform="rotate(0,216,48)"/><rect x="212" y="52" width="8" height="8" transform="rotate(0,216,56)"/><rect x="212" y="84" width="8" height="8" transform="rotate(0,216,88)"/><rect x="212" y="140" width="8" height="8" transform="rotate(0,216,144)"/><rect x="212" y="148" width="8" height="8" transform="rotate(0,216,152)"/><rect x="212" y="156" width="8" height="8" transform="rotate(0,216,160)"/><rect x="212" y="164" width="8" height="8" transform="rotate(0,216,168)"/><rect x="212" y="172" width="8" height="8" transform="rotate(0,216,176)"/><rect x="212" y="180" width="8" height="8" transform="rotate(0,216,184)"/><rect x="212" y="188" width="8" height="8" transform="rotate(0,216,192)"/><rect x="212" y="196" width="8" height="8" transform="rotate(0,216,200)"/><rect x="212" y="204" width="8" height="8" transform="rotate(0,216,208)"/><rect x="212" y="220" width="8" height="8" transform="rotate(0,216,224)"/><rect x="212" y="252" width="8" height="8" transform="rotate(0,216,256)"/><rect x="212" y="260" width="8" height="8" transform="rotate(0,216,264)"/><rect x="212" y="268" width="8" height="8" transform="rotate(0,216,272)"/><rect x="212" y="276" width="8" height="8" transform="rotate(0,216,280)"/><rect x="220" y="28" width="8" height="8" transform="rotate(0,224,32)"/><rect x="220" y="44" width="8" height="8" transform="rotate(0,224,48)"/><rect x="220" y="76" width="8" height="8" transform="rotate(0,224,80)"/><rect x="220" y="84" width="8" height="8" transform="rotate(0,224,88)"/><rect x="220" y="92" width="8" height="8" transform="rotate(0,224,96)"/><rect x="220" y="116" width="8" height="8" transform="rotate(0,224,120)"/><rect x="220" y="132" width="8" height="8" transform="rotate(0,224,136)"/><rect x="220" y="140" width="8" height="8" transform="rotate(0,224,144)"/><rect x="220" y="156" width="8" height="8" transform="rotate(0,224,160)"/><rect x="220" y="164" width="8" height="8" transform="rotate(0,224,168)"/><rect x="220" y="172" width="8" height="8" transform="rotate(0,224,176)"/><rect x="220" y="180" width="8" height="8" transform="rotate(0,224,184)"/><rect x="220" y="204" width="8" height="8" transform="rotate(0,224,208)"/><rect x="220" y="212" width="8" height="8" transform="rotate(0,224,216)"/><rect x="220" y="220" width="8" height="8" transform="rotate(0,224,224)"/><rect x="220" y="228" width="8" height="8" transform="rotate(0,224,232)"/><rect x="220" y="236" width="8" height="8" transform="rotate(0,224,240)"/><rect x="220" y="244" width="8" height="8" transform="rotate(0,224,248)"/><rect x="220" y="252" width="8" height="8" transform="rotate(0,224,256)"/><rect x="220" y="260" width="8" height="8" transform="rotate(0,224,264)"/><rect x="220" y="268" width="8" height="8" transform="rotate(0,224,272)"/><rect x="220" y="276" width="8" height="8" transform="rotate(0,224,280)"/><rect x="228" y="92" width="8" height="8" transform="rotate(0,232,96)"/><rect x="228" y="108" width="8" height="8" transform="rotate(0,232,112)"/><rect x="228" y="124" width="8" height="8" transform="rotate(0,232,128)"/><rect x="228" y="132" width="8" height="8" transform="rotate(0,232,136)"/><rect x="228" y="172" width="8" height="8" transform="rotate(0,232,176)"/><rect x="228" y="180" width="8" height="8" transform="rotate(0,232,184)"/><rect x="228" y="188" width="8" height="8" transform="rotate(0,232,192)"/><rect x="228" y="204" width="8" height="8" transform="rotate(0,232,208)"/><rect x="228" y="220" width="8" height="8" transform="rotate(0,232,224)"/><rect x="228" y="252" width="8" height="8" transform="rotate(0,232,256)"/><rect x="228" y="268" width="8" height="8" transform="rotate(0,232,272)"/><rect x="228" y="284" width="8" height="8" transform="rotate(0,232,288)"/><rect x="236" y="92" width="8" height="8" transform="rotate(0,240,96)"/><rect x="236" y="100" width="8" height="8" transform="rotate(0,240,104)"/><rect x="236" y="116" width="8" height="8" transform="rotate(0,240,120)"/><rect x="236" y="124" width="8" height="8" transform="rotate(0,240,128)"/><rect x="236" y="132" width="8" height="8" transform="rotate(0,240,136)"/><rect x="236" y="140" width="8" height="8" transform="rotate(0,240,144)"/><rect x="236" y="148" width="8" height="8" transform="rotate(0,240,152)"/><rect x="236" y="172" width="8" height="8" transform="rotate(0,240,176)"/><rect x="236" y="188" width="8" height="8" transform="rotate(0,240,192)"/><rect x="236" y="204" width="8" height="8" transform="rotate(0,240,208)"/><rect x="236" y="212" width="8" height="8" transform="rotate(0,240,216)"/><rect x="236" y="220" width="8" height="8" transform="rotate(0,240,224)"/><rect x="236" y="236" width="8" height="8" transform="rotate(0,240,240)"/><rect x="236" y="252" width="8" height="8" transform="rotate(0,240,256)"/><rect x="236" y="268" width="8" height="8" transform="rotate(0,240,272)"/><rect x="244" y="92" width="8" height="8" transform="rotate(0,248,96)"/><rect x="244" y="100" width="8" height="8" transform="rotate(0,248,104)"/><rect x="244" y="148" width="8" height="8" transform="rotate(0,248,152)"/><rect x="244" y="164" width="8" height="8" transform="rotate(0,248,168)"/><rect x="244" y="172" width="8" height="8" transform="rotate(0,248,176)"/><rect x="244" y="212" width="8" height="8" transform="rotate(0,248,216)"/><rect x="244" y="220" width="8" height="8" transform="rotate(0,248,224)"/><rect x="244" y="252" width="8" height="8" transform="rotate(0,248,256)"/><rect x="244" y="260" width="8" height="8" transform="rotate(0,248,264)"/><rect x="244" y="268" width="8" height="8" transform="rotate(0,248,272)"/><rect x="252" y="92" width="8" height="8" transform="rotate(0,256,96)"/><rect x="252" y="100" width="8" height="8" transform="rotate(0,256,104)"/><rect x="252" y="108" width="8" height="8" transform="rotate(0,256,112)"/><rect x="252" y="156" width="8" height="8" transform="rotate(0,256,160)"/><rect x="252" y="164" width="8" height="8" transform="rotate(0,256,168)"/><rect x="252" y="172" width="8" height="8" transform="rotate(0,256,176)"/><rect x="252" y="188" width="8" height="8" transform="rotate(0,256,192)"/><rect x="252" y="196" width="8" height="8" transform="rotate(0,256,200)"/><rect x="252" y="204" width="8" height="8" transform="rotate(0,256,208)"/><rect x="252" y="220" width="8" height="8" transform="rotate(0,256,224)"/><rect x="252" y="228" width="8" height="8" transform="rotate(0,256,232)"/><rect x="252" y="236" width="8" height="8" transform="rotate(0,256,240)"/><rect x="252" y="244" width="8" height="8" transform="rotate(0,256,248)"/><rect x="252" y="252" width="8" height="8" transform="rotate(0,256,256)"/><rect x="252" y="260" width="8" height="8" transform="rotate(0,256,264)"/><rect x="252" y="276" width="8" height="8" transform="rotate(0,256,280)"/><rect x="260" y="92" width="8" height="8" transform="rotate(0,264,96)"/><rect x="260" y="116" width="8" height="8" transform="rotate(0,264,120)"/><rect x="260" y="124" width="8" height="8" transform="rotate(0,264,128)"/><rect x="260" y="148" width="8" height="8" transform="rotate(0,264,152)"/><rect x="260" y="164" width="8" height="8" transform="rotate(0,264,168)"/><rect x="260" y="196" width="8" height="8" transform="rotate(0,264,200)"/><rect x="260" y="212" width="8" height="8" transform="rotate(0,264,216)"/><rect x="260" y="220" width="8" height="8" transform="rotate(0,264,224)"/><rect x="260" y="228" width="8" height="8" transform="rotate(0,264,232)"/><rect x="260" y="252" width="8" height="8" transform="rotate(0,264,256)"/><rect x="260" y="260" width="8" height="8" transform="rotate(0,264,264)"/><rect x="260" y="268" width="8" height="8" transform="rotate(0,264,272)"/><rect x="260" y="284" width="8" height="8" transform="rotate(0,264,288)"/><rect x="268" y="92" width="8" height="8" transform="rotate(0,272,96)"/><rect x="268" y="100" width="8" height="8" transform="rotate(0,272,104)"/><rect x="268" y="108" width="8" height="8" transform="rotate(0,272,112)"/><rect x="268" y="116" width="8" height="8" transform="rotate(0,272,120)"/><rect x="268" y="188" width="8" height="8" transform="rotate(0,272,192)"/><rect x="268" y="196" width="8" height="8" transform="rotate(0,272,200)"/><rect x="268" y="204" width="8" height="8" transform="rotate(0,272,208)"/><rect x="268" y="220" width="8" height="8" transform="rotate(0,272,224)"/><rect x="268" y="236" width="8" height="8" transform="rotate(0,272,240)"/><rect x="268" y="244" width="8" height="8" transform="rotate(0,272,248)"/><rect x="276" y="92" width="8" height="8" transform="rotate(0,280,96)"/><rect x="276" y="108" width="8" height="8" transform="rotate(0,280,112)"/><rect x="276" y="116" width="8" height="8" transform="rotate(0,280,120)"/><rect x="276" y="132" width="8" height="8" transform="rotate(0,280,136)"/><rect x="276" y="140" width="8" height="8" transform="rotate(0,280,144)"/><rect x="276" y="148" width="8" height="8" transform="rotate(0,280,152)"/><rect x="276" y="164" width="8" height="8" transform="rotate(0,280,168)"/><rect x="276" y="172" width="8" height="8" transform="rotate(0,280,176)"/><rect x="276" y="196" width="8" height="8" transform="rotate(0,280,200)"/><rect x="276" y="212" width="8" height="8" transform="rotate(0,280,216)"/><rect x="276" y="220" width="8" height="8" transform="rotate(0,280,224)"/><rect x="276" y="236" width="8" height="8" transform="rotate(0,280,240)"/><rect x="276" y="252" width="8" height="8" transform="rotate(0,280,256)"/><rect x="276" y="260" width="8" height="8" transform="rotate(0,280,264)"/><rect x="276" y="268" width="8" height="8" transform="rotate(0,280,272)"/><rect x="284" y="100" width="8" height="8" transform="rotate(0,288,104)"/><rect x="284" y="108" width="8" height="8" transform="rotate(0,288,112)"/><rect x="284" y="140" width="8" height="8" transform="rotate(0,288,144)"/><rect x="284" y="148" width="8" height="8" transform="rotate(0,288,152)"/><rect x="284" y="156" width="8" height="8" transform="rotate(0,288,160)"/><rect x="284" y="172" width="8" height="8" transform="rotate(0,288,176)"/><rect x="284" y="204" width="8" height="8" transform="rotate(0,288,208)"/><rect x="284" y="212" width="8" height="8" transform="rotate(0,288,216)"/><rect x="284" y="220" width="8" height="8" transform="rotate(0,288,224)"/><rect x="284" y="228" width="8" height="8" transform="rotate(0,288,232)"/><rect x="284" y="236" width="8" height="8" transform="rotate(0,288,240)"/><rect x="284" y="244" width="8" height="8" transform="rotate(0,288,248)"/><rect x="284" y="276" width="8" height="8" transform="rotate(0,288,280)"/></clipPath><clipPath id="clip-path-corners-square-color-0-0"><path clip-rule="evenodd" d="M 28 28v 56h 56v -56zM 36 36h 40v 40h -40z" transform="rotate(0,56,56)"/></clipPath><clipPath id="clip-path-corners-dot-color-0-0"><rect x="44" y="44" width="24" height="24" transform="rotate(0,56,56)"/></clipPath><clipPath id="clip-path-corners-square-color-1-0"><path clip-rule="evenodd" d="M 236 28v 56h 56v -56zM 244 36h 40v 40h -40z" transform="rotate(90,264,56)"/></clipPath><clipPath id="clip-path-corners-dot-color-1-0"><rect x="252" y="44" width="24" height="24" transform="rotate(90,264,56)"/></clipPath><clipPath id="clip-path-corners-square-color-0-1"><path clip-rule="evenodd" d="M 28 236v 56h 56v -56zM 36 244h 40v 40h -40z" transform="rotate(-90,56,264)"/></clipPath><clipPath id="clip-path-corners-dot-color-0-1"><rect x="44" y="252" width="24" height="24" transform="rotate(-90,56,264)"/></clipPath></defs><rect x="0" y="0" height="320" width="320" clip-path="url('#clip-path-background-color')" fill="#ffffff"/><rect x="0" y="0" height="320" width="320" clip-path="url('#clip-path-dot-color')" fill="#000"/><rect x="28" y="28" height="56" width="56" clip-path="url('#clip-path-corners-square-color-0-0')" fill="#000"/><rect x="44" y="44" height="24" width="24" clip-path="url('#clip-path-corners-dot-color-0-0')" fill="#000"/><rect x="236" y="28" height="56" width="56" clip-path="url('#clip-path-corners-square-color-1-0')" fill="#000"/><rect x="252" y="44" height="24" width="24" clip-path="url('#clip-path-corners-dot-color-1-0')" fill="#000"/><rect x="28" y="236" height="56" width="56" clip-path="url('#clip-path-corners-square-color-0-1')" fill="#000"/><rect x="44" y="252" height="24" width="24" clip-path="url('#clip-path-corners-dot-color-0-1')" fill="#000"/></svg>